<svg width="23" height="23" viewBox="0 0 23 23" fill="none" xmlns="http://www.w3.org/2000/svg">
    <path opacity="0.39" d="M11.4708 19.4453C15.8248 19.4453 19.3544 15.8742 19.3544 11.469C19.3544 7.06385 15.8248 3.49274 11.4708 3.49274C7.11686 3.49274 3.58727 7.06385 3.58727 11.469C3.58727 15.8742 7.11686 19.4453 11.4708 19.4453Z" fill="#0DE83D"/>
    <path d="M13.2649 9.60083C13.2234 9.23317 13.0525 8.94836 12.7522 8.7464C12.4519 8.54186 12.0738 8.43959 11.6181 8.43959C11.2919 8.43959 11.0097 8.49137 10.7715 8.59494C10.5333 8.69591 10.3481 8.83573 10.2161 9.01438C10.0866 9.19045 10.0219 9.39111 10.0219 9.61637C10.0219 9.80538 10.0659 9.9685 10.154 10.1057C10.2446 10.2429 10.3624 10.3582 10.5074 10.4514C10.655 10.542 10.8129 10.6184 10.9812 10.6805C11.1495 10.7401 11.3113 10.7893 11.4667 10.8281L12.2434 11.0301C12.4972 11.0922 12.7574 11.1763 13.0241 11.2825C13.2908 11.3887 13.538 11.5285 13.7659 11.702C13.9937 11.8754 14.1775 12.0903 14.3174 12.3467C14.4598 12.603 14.531 12.9098 14.531 13.2671C14.531 13.7176 14.4145 14.1177 14.1814 14.4672C13.951 14.8167 13.6157 15.0925 13.1755 15.2944C12.738 15.4964 12.2085 15.5974 11.5871 15.5974C10.9916 15.5974 10.4763 15.5029 10.0413 15.3139C9.60635 15.1248 9.26587 14.8569 9.0199 14.5099C8.77393 14.1604 8.63799 13.7461 8.6121 13.2671H9.81607C9.83937 13.5545 9.93258 13.794 10.0957 13.9856C10.2614 14.1746 10.4724 14.3157 10.7288 14.4089C10.9877 14.4996 11.2712 14.5449 11.5793 14.5449C11.9185 14.5449 12.2201 14.4918 12.4842 14.3856C12.7509 14.2769 12.9606 14.1267 13.1134 13.9351C13.2662 13.7409 13.3425 13.5144 13.3425 13.2555C13.3425 13.0198 13.2752 12.8269 13.1406 12.6768C13.0085 12.5266 12.8286 12.4023 12.6007 12.3039C12.3755 12.2055 12.1204 12.1188 11.8356 12.0437L10.8958 11.7874C10.2588 11.6139 9.75393 11.3589 9.38109 11.0223C9.01084 10.6857 8.82571 10.2404 8.82571 9.68627C8.82571 9.22799 8.94999 8.82796 9.19855 8.48619C9.44711 8.14442 9.78371 7.87903 10.2083 7.69002C10.633 7.49842 11.112 7.40262 11.6453 7.40262C12.1839 7.40262 12.659 7.49712 13.0707 7.68613C13.4849 7.87514 13.8112 8.13536 14.0494 8.46677C14.2876 8.7956 14.4119 9.17362 14.4222 9.60083H13.2649Z" fill="#0DE83D"/>
    <path d="M11.5713 18.7261C9.65466 18.7261 7.81657 17.9647 6.46132 16.6095C5.10607 15.2542 4.3447 13.4161 4.3447 11.4995C4.3447 9.5829 5.10607 7.74479 6.46132 6.38954C7.81657 5.0343 9.65466 4.27292 11.5713 4.27292C12.5663 4.26986 13.551 4.47522 14.4619 4.87579C14.4949 4.89151 14.5244 4.91358 14.5489 4.94074C14.5734 4.96789 14.5923 4.99961 14.6045 5.03405C14.6167 5.06851 14.622 5.10503 14.62 5.14153C14.6181 5.17802 14.609 5.21379 14.5933 5.24678C14.5645 5.31227 14.5109 5.36368 14.4443 5.38976C14.3776 5.41583 14.3034 5.41444 14.2378 5.3859C13.3948 5.01619 12.484 4.82664 11.5636 4.82941C9.99943 4.8311 8.48555 5.38179 7.28589 6.38543C6.08623 7.38906 5.27694 8.78196 4.99913 10.3212C4.72134 11.8605 4.99267 13.4483 5.7658 14.8081C6.53895 16.1677 7.76483 17.2129 9.22972 17.7613C10.6945 18.3096 12.3053 18.3264 13.7813 17.8086C15.2572 17.2909 16.5046 16.2714 17.3058 14.9281C18.1071 13.5848 18.4114 12.0029 18.1657 10.4582C17.92 8.91349 17.1398 7.50406 15.9613 6.47568C15.9181 6.42618 15.8943 6.3626 15.8945 6.29684C15.8947 6.23108 15.9189 6.16764 15.9624 6.11839C16.006 6.06914 16.066 6.03745 16.1312 6.02923C16.1965 6.02102 16.2624 6.03685 16.3169 6.07377C17.424 7.04143 18.2097 8.32381 18.5688 9.74967C18.928 11.1755 18.8436 12.6771 18.3271 14.0538C17.8105 15.4305 16.8863 16.6167 15.6778 17.4544C14.4693 18.292 13.034 18.741 11.5636 18.7416L11.5713 18.7261Z" fill="#0DE83D"/>
    <path d="M11.5714 20.0714C9.87618 20.0714 8.21894 19.5687 6.80937 18.6269C5.3998 17.685 4.30119 16.3464 3.65243 14.7801C3.00369 13.2139 2.83394 11.4905 3.16467 9.82778C3.4954 8.1651 4.31176 6.63781 5.51049 5.43908C6.70923 4.24034 8.2365 3.42399 9.89917 3.09326C11.5619 2.76253 13.2853 2.93227 14.8515 3.58102C16.4178 4.22977 17.7564 5.3284 18.6983 6.73796C19.6401 8.14752 20.1428 9.80472 20.1428 11.5C20.1408 13.7726 19.2371 15.9516 17.6301 17.5587C16.023 19.1657 13.844 20.0694 11.5714 20.0714ZM11.5714 3.70146C10.029 3.70146 8.52124 4.15883 7.23877 5.01575C5.95631 5.87266 4.95675 7.09062 4.3665 8.51562C3.77624 9.94061 3.62181 11.5086 3.92271 13.0214C4.22362 14.5342 4.96636 15.9238 6.05701 17.0143C7.14765 18.105 8.53722 18.8477 10.05 19.1486C11.5627 19.4495 13.1308 19.2951 14.5558 18.7049C15.9807 18.1146 17.1987 17.1151 18.0556 15.8326C18.9126 14.5502 19.3699 13.0424 19.3699 11.5C19.3659 9.43294 18.5429 7.45173 17.0813 5.99011C15.6196 4.52848 13.6384 3.70554 11.5714 3.70146Z" fill="#0DE83D"/>
</svg>
